<svg xmlns="http://www.w3.org/2000/svg" viewBox="0 0 701.5 276.19"><defs><style>.cls-1{fill:#1d1f18;}</style></defs><title>logo</title><g id="Capa_2" data-name="Capa 2"><g id="Layer_1" data-name="Layer 1"><path class="cls-1" d="M697.12,0H277.91L205.25,124.78,131.58,0H4.38L2.76,1.61,0,4.37V271.82l4.37,4.37H107.51l4.38-4.37v-110l68.32,114.39h51.56L298.63,161.5v78.07h11V136.63h-9.24L225.45,265.19H185.26c-.48-.73-84.37-142.73-84.37-142.73V265.19H11V11H126l.16.23c1.28,1.94,3.06,4.79,5.3,8.47q10.07,16.61,32.4,56v0l37.93,65h6.9L284.23,11H690.5V57.07H589V265.19H499.15V57.07H398.94V265.19H298.63v6.62l4.37,4.37H405.57l4.37-4.37V68.07h78.21V271.82l4.37,4.37H595.66l4.38-4.38V68.07h97.08l4.38-4.37V4.37Z"/></g></g></svg>